<?xml version="1.0" ?><svg data-name="Layer 1" id="Layer_1" viewBox="0 0 64 64" xmlns="http://www.w3.org/2000/svg"><title/><path d="M19.16,36.64c.22-.25.45-.49.7-.71l.06-.06a13.34,13.34,0,0,1-1.18-.62l-.29-.18q-.51-.31-1-.67l-.33-.25a13.08,13.08,0,0,1-5-9.2,1,1,0,0,1,1.76-.73c.18.22.38.44.59.65a8.51,8.51,0,0,0,9.07,1.91,5.2,5.2,0,0,1,1.31-1.4,7.42,7.42,0,0,0-7-5.13,7.07,7.07,0,0,0-1.83.23l-.33.09-.2.06-.13,0-.38.15a8.38,8.38,0,0,0-1.26.69l-.25.18-.28.21-.65.6-.09.09c-.19.21-.35.41-.51.62l-.19.27a7,7,0,0,0-.55.95l-.16.35c0,.06-.07.17-.1.27a7.09,7.09,0,0,0-.38,1.44h0a7.14,7.14,0,0,0-.08,1.12c0,.18,0,.37,0,.56a1,1,0,0,1-.93,1.07H9.55a1,1,0,0,1-1-.93c0-.23,0-.47,0-.7,0-.06,0-.11,0-.16a6.22,6.22,0,0,0,.76,12.4h7.93l0-.08a10.16,10.16,0,0,1,.44-1l.11-.19c.14-.26.29-.51.45-.76l.21-.3q.22-.32.47-.61Zm-8.1-4.09a1,1,0,0,1-1.36-.39q-.19-.34-.35-.7a1,1,0,1,1,1.82-.82c.08.19.18.37.28.55A1,1,0,0,1,11.06,32.56Z"/><path d="M19.2,29.26a10.48,10.48,0,0,1-4.38-1.6,11.18,11.18,0,0,0,3.64,5l.36.25c.25.18.5.36.77.52l.47.25c.25.13.49.27.74.38l.53.21.56.2.4-.19.46-.22c.23-.1.46-.18.69-.26l.45-.15c.26-.08.53-.13.79-.19l.39-.09a10.17,10.17,0,0,1,1.21-.13c0-.16.07-.3.11-.43s.09-.33.14-.5l.13-.4c.06-.18.13-.34.19-.5l.06-.14c.09-.21.17-.37.25-.55A10.06,10.06,0,0,1,28,29.24c.06-.11.18-.27.29-.42l.1-.13c.09-.12.18-.24.28-.34s.19-.23.32-.37a4.92,4.92,0,0,1,.42-.44,3.65,3.65,0,0,1,.3-.28L30,27l.42-.34a3.63,3.63,0,0,1,.33-.27l.84-.56a10.69,10.69,0,0,1,1-.55l.17-.08.37-.16a11.89,11.89,0,0,1,1.4-.5l.79-.19.11,0,.18,0,.29,0,.29,0,.35,0,.21,0A11.35,11.35,0,0,0,29.35,13.1a10.59,10.59,0,0,1-1.23,13l-.12.13a10.41,10.41,0,0,1-3.36,2.26A10.52,10.52,0,0,1,19.2,29.26Z"/><path d="M55.47,39.44a1,1,0,0,1-.9-1v-.22A4.27,4.27,0,0,0,49.89,34l-.25,0-.12,0h0l-.1,0h-.08a3,3,0,0,0-.52.17l-.13,0h0l-.19.09h0a4.21,4.21,0,0,0-2.35,3.8,4.26,4.26,0,0,0,.6,2.19,1,1,0,0,1-1.72,1,6.32,6.32,0,0,1-.88-3.2A6.19,6.19,0,0,1,46.82,33a9.64,9.64,0,0,0-9.16-6.88h-.06c-.3,0-.6,0-.9,0l-.24,0-.15,0L35,26.51a10.24,10.24,0,0,0-1.12.4l-.32.14-.15.07a8.8,8.8,0,0,0-.78.42l-.76.51-.21.17-.39.31-.12.11a1,1,0,0,1-.17.15.92.92,0,0,0-.12.11l-.1.1a3,3,0,0,0-.26.28c-.13.14-.22.24-.3.34l-.22.27-.11.14c-.06.08-.14.19-.2.29A8.5,8.5,0,0,0,29,31.59l-.21.45,0,.12c-.05.13-.11.26-.15.4l-.11.36c0,.12-.08.27-.12.42s-.09.34-.12.49-.07.36-.1.55h0A10.46,10.46,0,0,0,28,35.76c0,.24,0,.48,0,.71a1,1,0,0,1-.91,1.08h-.08a1,1,0,0,1-1-.92c0-.29,0-.59,0-.88s0-.32,0-.48a8.07,8.07,0,0,0-6.9,5.12q-.14.35-.24.72a8.14,8.14,0,0,0,7.84,10.4H54.86a6.06,6.06,0,0,0,.61-12.1ZM28.84,41.78a1,1,0,0,1-1.36-.39q-.23-.42-.43-.86a1,1,0,1,1,1.82-.82q.16.36.36.71A1,1,0,0,1,28.84,41.78Z"/></svg>