<?xml version="1.0" ?><svg data-name="Layer 1" id="Layer_1" viewBox="0 0 64 64" xmlns="http://www.w3.org/2000/svg"><title/><path d="M53.3,32.45a1,1,0,0,1-.89-1.12,1.55,1.55,0,0,0,0-.18,6.11,6.11,0,0,0-7.5-5.95h0a6,6,0,0,0-.62.19l-.06,0a5.82,5.82,0,0,0-.61.26h0a6.1,6.1,0,0,0-2.53,8.59,1,1,0,1,1-1.72,1A8.1,8.1,0,0,1,42,24.3a13.4,13.4,0,0,0-12.85-9.83h0c-.44,0-.88,0-1.32.07l-.36.05c-.29,0-.58.08-.87.13l-.63.15L25.4,15l-.76.25-.35.13q-.43.17-.84.36l-.22.11c-.3.15-.59.31-.88.48l-.13.08c-.3.19-.6.38-.89.59l-.05,0a13.51,13.51,0,0,0-3.68,4.07l-.17.28c-.09.17-.17.35-.26.52s-.21.41-.3.62-.12.29-.17.44-.2.5-.28.76-.08.27-.12.41-.15.55-.22.84-.05.27-.08.41a13.33,13.33,0,0,0-.23,2.43c0,.34,0,.67,0,1a1,1,0,0,1-.92,1.07h-.07a1,1,0,0,1-1-.93q0-.57,0-1.15c0-.35,0-.7.05-1a11.38,11.38,0,0,0,.56,22.75H52.44a8.56,8.56,0,0,0,.86-17.08ZM17.06,35.66a1,1,0,0,1-1.36-.39q-.31-.56-.57-1.14a1,1,0,1,1,1.82-.82c.15.34.32.67.5,1A1,1,0,0,1,17.06,35.66Z"/></svg>