<?xml version="1.0" ?><svg data-name="Layer 1" id="Layer_1" viewBox="0 0 64 64" xmlns="http://www.w3.org/2000/svg"><title/><path d="M21.16,51.57l-1.53,5.7a1,1,0,1,0,1.93.52l1.53-5.7a1,1,0,1,0-1.93-.52Z"/><path d="M33,51.57l-1.53,5.7a1,1,0,1,0,1.93.52l1.53-5.7A1,1,0,0,0,33,51.57Z"/><path d="M44.82,51.57l-1.53,5.7a1,1,0,1,0,1.93.52l1.53-5.7a1,1,0,0,0-1.93-.52Z"/><path d="M17.22,9.93a1,1,0,0,0,1-1V6.48a1,1,0,0,0-2,0V8.93A1,1,0,0,0,17.22,9.93Z"/><path d="M2,22.69H4.46a1,1,0,1,0,0-2H2a1,1,0,0,0,0,2Z"/><path d="M7.49,13.38A1,1,0,0,0,8.91,12L7.17,10.23a1,1,0,0,0-1.41,1.41Z"/><path d="M6.46,33.45a1,1,0,0,0,.71-.29l1.74-1.74A1,1,0,0,0,7.49,30L5.76,31.75a1,1,0,0,0,.71,1.71Z"/><path d="M26.25,13.67a1,1,0,0,0,.71-.29l1.74-1.74a1,1,0,0,0-1.41-1.41L25.54,12a1,1,0,0,0,.71,1.71Z"/><path d="M54.44,31.59a1,1,0,0,1-.89-1.11s0-.1,0-.15a5.17,5.17,0,0,0-5.17-5.17H48.3a5.18,5.18,0,0,0-.91.09l-.16,0a5.11,5.11,0,0,0-.75.23l-.23.1A5.16,5.16,0,0,0,43.93,33a1,1,0,1,1-1.72,1,7.16,7.16,0,0,1,2.25-9.67,11.48,11.48,0,0,0-11-8.33c-.37,0-.73,0-1.09,0h-.11l-.18,0-.12,0-.22,0-.52.08-.37.08-.43.11a11.86,11.86,0,0,0-1.41.5l-.51.23a10.15,10.15,0,0,0-1,.52l-.46.3a4.48,4.48,0,0,0-.37.26l-.09.07-.23.18h0l-.72.61-.29.28-.36.39c-.14.15-.25.27-.35.4s-.25.31-.36.45A4.64,4.64,0,0,0,24,21a10.56,10.56,0,0,0-.87,1.49c-.08.17-.16.33-.23.51s-.18.42-.25.63-.1.28-.14.41-.11.36-.15.53-.1.4-.14.59h0a11.54,11.54,0,0,0-.23,2.3c0,.29,0,.57,0,.85a1,1,0,0,1-.91,1.08h-.08a1,1,0,0,1-1-.92c0-.34,0-.68,0-1s0-.51,0-.76a9.74,9.74,0,0,0,.63,19.46h33a7.3,7.3,0,0,0,.73-14.56Zm-31.68,2a1,1,0,0,1-1.36-.39q-.31-.56-.57-1.14a1,1,0,0,1,1.82-.82q.23.51.5,1A1,1,0,0,1,22.76,33.55Z"/><path d="M12.61,27.88l.13-.11.35-.3.52-.42.38-.28.55-.36.41-.24.58-.3.42-.2.62-.25.43-.16.66-.19.42-.11c.25-.06.5-.1.75-.14l.36-.06c.37,0,.75-.08,1.13-.09,0-.19.09-.4.14-.6h0v0l.14-.48,0-.07v-.05c0-.14.1-.31.16-.48s.18-.48.29-.73h0c.08-.21.18-.41.27-.61v0a11.91,11.91,0,0,1,1-1.64h0l0,0a6,6,0,0,1,.35-.5c.12-.16.24-.32.38-.47h0l0,0,0,0c.1-.13.25-.3.41-.48l.41-.43a7.69,7.69,0,1,0-11.32,9.91Z"/></svg>