<?xml version="1.0" ?><svg data-name="Layer 1" id="Layer_1" viewBox="0 0 64 64" xmlns="http://www.w3.org/2000/svg"><title/><path d="M13,28.57a11.39,11.39,0,0,1,1-1l.13-.12a11.37,11.37,0,0,1,1.09-.81l.17-.11a11.38,11.38,0,0,1,1.18-.65l.18-.08a11.43,11.43,0,0,1,1.27-.5l.17,0A11.49,11.49,0,0,1,19.58,25l.12,0a11.65,11.65,0,0,1,1.5-.15c0-.19.09-.38.14-.57s.11-.41.18-.61.1-.31.15-.47.18-.47.28-.71.18-.4.27-.6a11.9,11.9,0,0,1,1-1.69,5.82,5.82,0,0,1,.34-.49c.13-.17.26-.35.41-.51s.25-.3.4-.47l.42-.45c.13-.13.26-.26.4-.37l.29-.26.41-.34.33-.25a11.83,11.83,0,0,0-7.44-8.18A10.88,10.88,0,0,1,3.67,23.92a11.8,11.8,0,0,0,7.6,7.28v0A11.53,11.53,0,0,1,12,29.87l0,0A11.41,11.41,0,0,1,13,28.67Z"/><path d="M54.58,31.61a1,1,0,0,1-.9-1.1s0-.1,0-.15a5,5,0,0,0-5-5,4.13,4.13,0,0,0-.5,0l-.37,0h-.07l-.16,0a4.47,4.47,0,0,0-.71.22l-.08,0h0l-.09,0-.19.09h0l0,0a5,5,0,0,0-2.79,4.49,5,5,0,0,0,.71,2.59,1,1,0,1,1-1.72,1,7.11,7.11,0,0,1-1-3.6,7,7,0,0,1,3.19-5.87,11.2,11.2,0,0,0-10.73-8.12c-.36,0-.71,0-1.07,0h-.11l-.17,0-.12,0-.22,0-.5.08-.36.08-.42.1a11.59,11.59,0,0,0-1.38.48l-.5.23a10,10,0,0,0-.94.51l-.21.13-.07,0h0l-.09.06-.07.05h0l-.05,0a3.67,3.67,0,0,0-.31.22l-.09.07-.26.2-.39.33-.22.2c-.16.14-.25.23-.34.32l-.35.38c-.14.15-.24.27-.34.39s-.25.3-.35.44-.19.25-.27.38A10.2,10.2,0,0,0,24,22.68c-.08.17-.16.33-.23.5s-.17.41-.24.61-.1.28-.13.41-.11.36-.15.53-.09.37-.13.56-.09.42-.11.64a12.08,12.08,0,0,0-.11,1.61c0,.28,0,.56,0,.83A1,1,0,0,1,22,29.45h-.08a1,1,0,0,1-1-.92c0-.33,0-.67,0-1s0-.47,0-.71a9.42,9.42,0,0,0-8.17,5.93,9.28,9.28,0,0,0-.68,3.53,9.52,9.52,0,0,0,9.51,9.51H53.87a7.11,7.11,0,0,0,.72-14.19ZM23.92,34.32a1,1,0,0,1-1.36-.39q-.27-.48-.49-1a1,1,0,1,1,1.82-.82q.19.42.42.83A1,1,0,0,1,23.92,34.32Z"/><path d="M24,50.86l-1.53,5.7a1,1,0,1,0,1.93.52l1.53-5.7A1,1,0,0,0,24,50.86Z"/><path d="M35.8,50.86l-1.53,5.7a1,1,0,1,0,1.93.52l1.53-5.7a1,1,0,0,0-1.93-.52Z"/><path d="M47.63,50.86l-1.53,5.7a1,1,0,1,0,1.93.52l1.53-5.7a1,1,0,0,0-1.93-.52Z"/></svg>