<?xml version="1.0" ?><svg data-name="Layer 1" id="Layer_1" viewBox="0 0 64 64" xmlns="http://www.w3.org/2000/svg"><title/><path d="M53.3,28.3a1,1,0,0,1-.89-1.11,1.52,1.52,0,0,0,0-.19,6.1,6.1,0,0,0-7.49-5.95l-.07,0a6,6,0,0,0-.58.17l-.08,0a5.8,5.8,0,0,0-.6.26h0a6.1,6.1,0,0,0-2.53,8.59,1,1,0,1,1-1.72,1,8.1,8.1,0,0,1,2.64-11,13.4,13.4,0,0,0-12.85-9.83h0c-.44,0-.88,0-1.32.07l-.36.05c-.29,0-.58.08-.87.13l-.63.15-.54.14-.76.25-.35.13q-.43.17-.84.36l-.22.11c-.3.15-.59.31-.88.48l-.13.08c-.3.19-.6.38-.89.59l-.05,0A13.51,13.51,0,0,0,17.6,17l-.17.28c-.09.17-.17.35-.26.52s-.21.41-.3.62-.12.29-.17.44-.2.5-.28.76-.08.27-.12.41-.15.55-.22.84-.05.27-.08.41a13.33,13.33,0,0,0-.23,2.43q0,.5,0,1a1,1,0,0,1-.92,1.07h-.08a1,1,0,0,1-1-.93q0-.57,0-1.15c0-.35,0-.7.05-1a11.38,11.38,0,0,0,.56,22.75H33.85l.76-2.85H28.08a1,1,0,0,1-1-1.26l3.52-13.15a1,1,0,0,1,1.93.52L29.38,40.53h6.54a1,1,0,0,1,1,1.26l-1,3.59H52.44A8.56,8.56,0,0,0,53.3,28.3ZM17.06,31.51a1,1,0,0,1-1.36-.39q-.31-.56-.57-1.14a1,1,0,1,1,1.82-.82q.23.51.5,1A1,1,0,0,1,17.06,31.51Z"/></svg>