<?xml version="1.0" ?><svg data-name="Layer 1" id="Layer_1" viewBox="0 0 64 64" xmlns="http://www.w3.org/2000/svg"><title/><path d="M63,32a1,1,0,0,0-1-1H59.58l3.09-2.81a1,1,0,0,0-1.35-1.48L56.61,31h-8.9L44.4,21.47l5.71-5.71,6.37-.3a1,1,0,0,0-.09-2l-4.17.2,2.16-2.16A1,1,0,0,0,53,10.08L50.8,12.24,51,8.07a1,1,0,0,0-1-1,1,1,0,0,0-1,1l-.3,6.37L43.2,19.84,33,16.29V7.39l4.29-4.71a1,1,0,1,0-1.48-1.35L33,4.42V2a1,1,0,0,0-2,0V4.42L28.19,1.33a1,1,0,1,0-1.48,1.35L31,7.39v8.9l-9.87,3.43-5.38-5.38L15.46,8a1,1,0,0,0-2,.09l.2,4.17-2.16-2.16a1,1,0,0,0-1.41,1.41l2.16,2.16-4.17-.2a1,1,0,0,0-1,1,1,1,0,0,0,1,1l6.37.3,5.38,5.38L16.29,31H8L3.32,26.71A1,1,0,0,0,2,28.19L5.06,31H2a1,1,0,0,0,0,2H5.06L2,35.81a1,1,0,1,0,1.35,1.48L8,33h8.26l3.55,10.2L14.34,48.7,8,49a1,1,0,1,0,.09,2l4.17-.2-1.71,1.71a1,1,0,1,0,1.41,1.41l1.71-1.71-.2,4.17a1,1,0,0,0,1,1h0a1,1,0,0,0,1-1l.3-6.37,5.71-5.71L31,47.71V56l-4.29,4.71A1,1,0,1,0,28.19,62L31,58.94V62a1,1,0,0,0,2,0V58.94L35.81,62a1,1,0,1,0,1.48-1.35L33,56V47.71l9.87-3.43,5.83,5.83.3,6.37a1,1,0,0,0,1,1h0a1,1,0,0,0,1-1l-.2-4.17,1.71,1.71a1,1,0,0,0,1.41-1.41L52.21,50.8l4.17.2a1,1,0,0,0,1-1,1,1,0,0,0-1-1l-6.37-.3-5.83-5.83L47.71,33h8.9l4.71,4.29a1,1,0,0,0,1.35-1.48L59.58,33H62A1,1,0,0,0,63,32ZM45.59,31H39.71l-1.25-3.59L42.83,23ZM33,26.41l2.7.94L33,30Zm-2,3.18-2.36-2.36L31,26.41ZM29.59,31H26.41l.82-2.36ZM30,33l-2.7,2.7L26.41,33Zm1,1.87v2.72l-2-.7Zm2-.45,2.36,2.36L33,37.59ZM34.41,33h3.18l-.82,2.36Zm.45-2,2-2,.7,2Zm6.76-9.59-4.36,4.36L33,24.29V18.41ZM31,18.41v5.88l-3.93,1.37-4.36-4.36Zm-9.71,4.3,4.36,4.36L24.29,31H18.41ZM18.41,33h5.88l1.48,4.27-4.36,4.36ZM23,42.83l4.36-4.36L31,39.71v5.88Zm10,2.77V39.71l3.93-1.37,4.36,4.36Zm9.71-4.3-4.36-4.36L39.71,33h5.88Z"/></svg>