<svg xmlns="http://www.w3.org/2000/svg" enable-background="new 0 0 24 24" viewBox="0 0 24 24"><path d="M16.7 8.8c-1.9 0-3.8-.8-5.1-2.3C10 4.7 7.3 4.3 5.3 5.7L3.6 6.8C3.1 7.1 2.5 7 2.2 6.6 1.9 6.1 2 5.5 2.4 5.2L4.2 4c2.8-1.9 6.6-1.4 8.9 1.2 1.7 1.9 4.6 2.2 6.6.6l.7-.5c.4-.3 1.1-.3 1.4.2.3.4.3 1.1-.2 1.4L21 7.3C19.7 8.3 18.2 8.8 16.7 8.8zM16.7 14.8c-1.9 0-3.8-.8-5.1-2.3-1.6-1.8-4.3-2.2-6.3-.8l-1.8 1.2c-.5.3-1.1.2-1.4-.3S2 11.5 2.4 11.2L4.2 10c2.8-1.9 6.6-1.4 8.9 1.2 1.7 1.9 4.6 2.2 6.6.6l.7-.5c.4-.3 1.1-.3 1.4.2.3.4.3 1.1-.2 1.4L21 13.3C19.7 14.3 18.2 14.8 16.7 14.8zM16.7 20.8c-1.9 0-3.8-.8-5.1-2.3-1.6-1.8-4.3-2.2-6.3-.8l-1.8 1.2c-.5.3-1.1.2-1.4-.3-.3-.5-.2-1.1.3-1.4L4.2 16c2.8-1.9 6.6-1.4 8.9 1.2 1.7 1.9 4.6 2.2 6.6.6l.7-.5c.4-.3 1.1-.3 1.4.2.3.4.3 1.1-.2 1.4L21 19.3C19.7 20.3 18.2 20.8 16.7 20.8z"/></svg>